<?xml version="1.0" encoding="UTF-8"?><svg id="Layer_2" xmlns="http://www.w3.org/2000/svg" viewBox="0 0 536.65 41.8"><g id="Layer_1-2"><path d="M0,37.33v-20.94c0-2.53.37-4.8,1.11-6.81.74-2.01,1.82-3.73,3.23-5.15,1.41-1.43,3.1-2.52,5.07-3.28,1.97-.76,4.2-1.14,6.7-1.14s4.71.37,6.76,1.11c2.04.74,3.81,1.79,5.29,3.15,1.48,1.36,2.64,2.98,3.47,4.86.83,1.88,1.25,3.96,1.25,6.24,0,2.13-.37,4.1-1.11,5.89-.74,1.79-1.76,3.34-3.07,4.64-1.3,1.3-2.88,2.32-4.72,3.04-1.84.72-3.85,1.09-6.02,1.09-2.57,0-4.96-.51-7.19-1.52-2.22-1.01-4.19-2.5-5.89-4.45l.65-7c1.19,1.77,2.67,3.12,4.42,4.04,1.75.92,3.72,1.38,5.89,1.38,1.3,0,2.48-.16,3.53-.49,1.05-.33,1.93-.8,2.66-1.44.72-.63,1.28-1.38,1.68-2.25.4-.87.6-1.86.6-2.98s-.19-2.06-.57-2.93-.9-1.61-1.57-2.22c-.67-.61-1.48-1.09-2.44-1.44-.96-.34-2.03-.52-3.23-.52s-2.25.18-3.17.54c-.92.36-1.71.88-2.36,1.55-.65.67-1.14,1.5-1.46,2.5-.33,1-.49,2.13-.49,3.39v21.16H0Z" style="fill:#44423d;"/><path d="M48.83,15.73c-.94.36-1.75.89-2.41,1.57-.67.69-1.19,1.51-1.55,2.47-.36.96-.54,2.05-.54,3.28s.18,2.28.54,3.26c.36.98.89,1.81,1.57,2.5.69.69,1.51,1.22,2.47,1.6.96.38,2.03.57,3.23.57,1.3,0,2.54-.23,3.72-.68,1.18-.45,2.29-1.13,3.34-2.03l3.74,5.81c-1.45,1.38-3.12,2.42-5.02,3.15-1.9.72-3.93,1.09-6.1,1.09s-4.23-.37-6.08-1.11c-1.84-.74-3.43-1.77-4.75-3.09-1.32-1.32-2.35-2.9-3.09-4.75-.74-1.84-1.11-3.87-1.11-6.08s.37-4.22,1.11-6.05c.74-1.83,1.77-3.4,3.09-4.72s2.91-2.35,4.77-3.09c1.86-.74,3.9-1.11,6.1-1.11,2.03,0,3.91.31,5.64.92,1.74.62,3.26,1.49,4.56,2.63s2.35,2.51,3.15,4.1c.8,1.59,1.28,3.35,1.46,5.26l-24.25,7.54-1.41-5.7,20.78-6.4-2.28,4.23c-.18-.87-.5-1.65-.95-2.36-.45-.71-1-1.3-1.65-1.79-.65-.49-1.39-.87-2.22-1.14-.83-.27-1.74-.41-2.71-.41-1.16,0-2.21.18-3.15.54Z" style="fill:#44423d;"/><path d="M97.01,9.22v14.54c0,1.19.11,2.23.33,3.12.22.89.56,1.62,1.03,2.2.47.58,1.05,1.01,1.74,1.3.69.29,1.52.43,2.5.43.9,0,1.7-.14,2.39-.41.69-.27,1.25-.68,1.68-1.22s.76-1.25.98-2.12.33-1.88.33-3.04v-14.81h7.54v14.65c0,2.24-.3,4.26-.9,6.05-.6,1.79-1.46,3.31-2.58,4.56-1.12,1.25-2.49,2.2-4.1,2.85-1.61.65-3.43.98-5.45.98-1.3,0-2.51-.14-3.64-.41-1.12-.27-2.15-.67-3.09-1.19-.94-.52-1.78-1.17-2.52-1.95-.74-.78-1.37-1.67-1.87-2.69h3.8c-.51,1.01-1.13,1.91-1.87,2.69-.74.78-1.58,1.43-2.52,1.95-.94.52-1.97.92-3.09,1.19-1.12.27-2.33.41-3.64.41-2.03,0-3.84-.33-5.45-1-1.61-.67-2.98-1.62-4.1-2.85-1.12-1.23-1.98-2.74-2.58-4.53s-.9-3.81-.9-6.05v-14.65h7.54v14.81c0,1.19.11,2.22.33,3.07.22.85.54,1.55.98,2.09s.99.95,1.68,1.22c.69.27,1.48.41,2.39.41.98,0,1.82-.14,2.52-.41.71-.27,1.28-.7,1.74-1.28.45-.58.79-1.31,1-2.2.22-.89.33-1.94.33-3.17v-14.54h7.49Z" style="fill:#44423d;"/><path d="M121.43,37.33v-20.94c0-2.53.37-4.8,1.11-6.81.74-2.01,1.82-3.73,3.23-5.15,1.41-1.43,3.1-2.52,5.07-3.28,1.97-.76,4.2-1.14,6.7-1.14s4.71.37,6.76,1.11c2.04.74,3.81,1.79,5.29,3.15,1.48,1.36,2.64,2.98,3.47,4.86.83,1.88,1.25,3.96,1.25,6.24,0,2.13-.37,4.1-1.11,5.89-.74,1.79-1.76,3.34-3.07,4.64-1.3,1.3-2.88,2.32-4.72,3.04-1.84.72-3.85,1.09-6.02,1.09-2.57,0-4.96-.51-7.19-1.52-2.22-1.01-4.19-2.5-5.89-4.45l.65-7c1.19,1.77,2.67,3.12,4.42,4.04,1.75.92,3.72,1.38,5.89,1.38,1.3,0,2.48-.16,3.53-.49,1.05-.33,1.93-.8,2.66-1.44.72-.63,1.28-1.38,1.68-2.25.4-.87.6-1.86.6-2.98s-.19-2.06-.57-2.93-.9-1.61-1.57-2.22c-.67-.61-1.48-1.09-2.44-1.44-.96-.34-2.03-.52-3.23-.52s-2.25.18-3.17.54c-.92.36-1.71.88-2.36,1.55-.65.67-1.14,1.5-1.46,2.5-.33,1-.49,2.13-.49,3.39v21.16h-9.01Z" style="fill:#44423d;"/><path d="M170.26,15.73c-.94.36-1.75.89-2.41,1.57-.67.69-1.19,1.51-1.55,2.47-.36.96-.54,2.05-.54,3.28s.18,2.28.54,3.26c.36.98.89,1.81,1.57,2.5.69.69,1.51,1.22,2.47,1.6.96.38,2.03.57,3.23.57,1.3,0,2.54-.23,3.72-.68,1.17-.45,2.29-1.13,3.34-2.03l3.74,5.81c-1.45,1.38-3.12,2.42-5.02,3.15-1.9.72-3.93,1.09-6.1,1.09s-4.23-.37-6.08-1.11c-1.84-.74-3.43-1.77-4.75-3.09-1.32-1.32-2.35-2.9-3.09-4.75-.74-1.84-1.11-3.87-1.11-6.08s.37-4.22,1.11-6.05c.74-1.83,1.77-3.4,3.09-4.72,1.32-1.32,2.91-2.35,4.77-3.09,1.86-.74,3.9-1.11,6.1-1.11,2.03,0,3.91.31,5.64.92,1.74.62,3.26,1.49,4.56,2.63s2.35,2.51,3.15,4.1c.8,1.59,1.28,3.35,1.46,5.26l-24.25,7.54-1.41-5.7,20.78-6.4-2.28,4.23c-.18-.87-.5-1.65-.95-2.36-.45-.71-1-1.3-1.65-1.79-.65-.49-1.39-.87-2.22-1.14-.83-.27-1.74-.41-2.71-.41-1.16,0-2.21.18-3.15.54Z" style="fill:#44423d;"/><path d="M218.44,9.22v14.54c0,1.19.11,2.23.33,3.12.22.89.56,1.62,1.03,2.2.47.58,1.05,1.01,1.74,1.3.69.29,1.52.43,2.5.43.9,0,1.7-.14,2.39-.41.69-.27,1.25-.68,1.68-1.22s.76-1.25.98-2.12c.22-.87.33-1.88.33-3.04v-14.81h7.54v14.65c0,2.24-.3,4.26-.9,6.05-.6,1.79-1.46,3.31-2.58,4.56-1.12,1.25-2.49,2.2-4.1,2.85-1.61.65-3.43.98-5.45.98-1.3,0-2.51-.14-3.64-.41-1.12-.27-2.15-.67-3.09-1.19-.94-.52-1.78-1.17-2.52-1.95-.74-.78-1.37-1.67-1.87-2.69h3.8c-.51,1.01-1.13,1.91-1.87,2.69-.74.78-1.58,1.43-2.52,1.95-.94.52-1.97.92-3.09,1.19-1.12.27-2.33.41-3.64.41-2.03,0-3.84-.33-5.45-1-1.61-.67-2.98-1.62-4.1-2.85-1.12-1.23-1.98-2.74-2.58-4.53s-.9-3.81-.9-6.05v-14.65h7.54v14.81c0,1.19.11,2.22.33,3.07.22.85.54,1.55.98,2.09s.99.95,1.68,1.22c.69.27,1.48.41,2.39.41.98,0,1.82-.14,2.52-.41.71-.27,1.28-.7,1.74-1.28.45-.58.79-1.31,1-2.2.22-.89.33-1.94.33-3.17v-14.54h7.49Z" style="fill:#44423d;"/><path d="M242.85,37.33v-20.94c0-2.53.37-4.8,1.11-6.81.74-2.01,1.82-3.73,3.23-5.15,1.41-1.43,3.1-2.52,5.07-3.28,1.97-.76,4.2-1.14,6.7-1.14s4.71.37,6.76,1.11c2.04.74,3.81,1.79,5.29,3.15,1.48,1.36,2.64,2.98,3.47,4.86.83,1.88,1.25,3.96,1.25,6.24,0,2.13-.37,4.1-1.11,5.89-.74,1.79-1.76,3.34-3.07,4.64-1.3,1.3-2.88,2.32-4.72,3.04-1.84.72-3.85,1.09-6.02,1.09-2.57,0-4.96-.51-7.19-1.52-2.22-1.01-4.19-2.5-5.89-4.45l.65-7c1.19,1.77,2.67,3.12,4.42,4.04,1.75.92,3.72,1.38,5.89,1.38,1.3,0,2.48-.16,3.53-.49,1.05-.33,1.93-.8,2.66-1.44.72-.63,1.28-1.38,1.68-2.25.4-.87.6-1.86.6-2.98s-.19-2.06-.57-2.93-.9-1.61-1.57-2.22c-.67-.61-1.48-1.09-2.44-1.44-.96-.34-2.03-.52-3.23-.52s-2.25.18-3.17.54c-.92.36-1.71.88-2.36,1.55-.65.67-1.14,1.5-1.46,2.5-.33,1-.49,2.13-.49,3.39v21.16h-9.01Z" style="fill:#44423d;"/><path d="M341.6,9.22v14.54c0,1.19.11,2.23.33,3.12.22.89.56,1.62,1.03,2.2.47.58,1.05,1.01,1.74,1.3.69.29,1.52.43,2.5.43.9,0,1.7-.14,2.39-.41.69-.27,1.25-.68,1.68-1.22s.76-1.25.98-2.12c.22-.87.33-1.88.33-3.04v-14.81h7.54v14.65c0,2.24-.3,4.26-.9,6.05-.6,1.79-1.46,3.31-2.58,4.56-1.12,1.25-2.49,2.2-4.1,2.85-1.61.65-3.43.98-5.45.98-1.3,0-2.51-.14-3.64-.41-1.12-.27-2.15-.67-3.09-1.19-.94-.52-1.78-1.17-2.52-1.95-.74-.78-1.37-1.67-1.87-2.69h3.8c-.51,1.01-1.13,1.91-1.87,2.69-.74.78-1.58,1.43-2.52,1.95-.94.52-1.97.92-3.09,1.19-1.12.27-2.33.41-3.64.41-2.03,0-3.84-.33-5.45-1-1.61-.67-2.98-1.62-4.1-2.85-1.12-1.23-1.98-2.74-2.58-4.53s-.9-3.81-.9-6.05v-14.65h7.54v14.81c0,1.19.11,2.22.33,3.07.22.85.54,1.55.98,2.09s.99.95,1.68,1.22c.69.27,1.48.41,2.39.41.98,0,1.82-.14,2.52-.41.71-.27,1.28-.7,1.74-1.28.45-.58.79-1.31,1-2.2.22-.89.33-1.94.33-3.17v-14.54h7.49Z" style="fill:#44423d;"/><path d="M377.46,15.73c-.94.36-1.75.89-2.41,1.57-.67.69-1.19,1.51-1.55,2.47-.36.96-.54,2.05-.54,3.28s.18,2.28.54,3.26c.36.98.89,1.81,1.57,2.5.69.69,1.51,1.22,2.47,1.6.96.38,2.03.57,3.23.57,1.3,0,2.54-.23,3.72-.68,1.17-.45,2.29-1.13,3.34-2.03l3.74,5.81c-1.45,1.38-3.12,2.42-5.02,3.15-1.9.72-3.93,1.09-6.1,1.09s-4.23-.37-6.08-1.11c-1.84-.74-3.43-1.77-4.75-3.09-1.32-1.32-2.35-2.9-3.09-4.75-.74-1.84-1.11-3.87-1.11-6.08s.37-4.22,1.11-6.05c.74-1.83,1.77-3.4,3.09-4.72,1.32-1.32,2.91-2.35,4.77-3.09,1.86-.74,3.9-1.11,6.1-1.11,2.03,0,3.91.31,5.64.92,1.74.62,3.26,1.49,4.56,2.63s2.35,2.51,3.15,4.1c.8,1.59,1.28,3.35,1.46,5.26l-24.25,7.54-1.41-5.7,20.78-6.4-2.28,4.23c-.18-.87-.5-1.65-.95-2.36-.45-.71-1-1.3-1.65-1.79-.65-.49-1.39-.87-2.22-1.14-.83-.27-1.74-.41-2.71-.41-1.16,0-2.21.18-3.15.54Z" style="fill:#44423d;"/><path d="M415.44,8.44c.61.09,1.23.23,1.84.41v7.49c-.36-.14-.75-.25-1.17-.33-.42-.07-.9-.11-1.44-.11-1.12,0-2.11.17-2.96.52-.85.34-1.57.86-2.17,1.55-.6.69-1.04,1.54-1.33,2.55-.29,1.01-.43,2.19-.43,3.53v13.29h-8.14v-13.56c0-4.92,1.19-8.73,3.58-11.42,2.39-2.69,5.79-4.04,10.2-4.04.72,0,1.39.05,2.01.14Z" style="fill:#44423d;"/><path d="M422.39,30.52c.83.74,1.25,1.75,1.25,3.01,0,.65-.11,1.23-.33,1.74-.22.51-.52.94-.92,1.3-.4.36-.87.64-1.41.84-.54.2-1.12.3-1.74.3-1.27,0-2.32-.38-3.15-1.14-.83-.76-1.25-1.77-1.25-3.04,0-.61.11-1.17.33-1.68.22-.51.52-.94.92-1.3.4-.36.86-.64,1.38-.84.52-.2,1.11-.3,1.76-.3,1.27,0,2.31.37,3.15,1.11Z" style="fill:#44423d;"/><path d="M448,9.47c1.95.78,3.64,1.87,5.05,3.28l-4.34,5.81c-.9-.87-1.93-1.53-3.07-1.98-1.14-.45-2.32-.68-3.55-.68-1.12,0-2.15.18-3.09.54-.94.36-1.75.87-2.41,1.52-.67.65-1.19,1.43-1.57,2.33-.38.9-.57,1.9-.57,2.98s.19,2.03.57,2.96c.38.92.9,1.71,1.57,2.36.67.65,1.47,1.17,2.41,1.55.94.38,1.97.57,3.09.57,1.23,0,2.43-.23,3.61-.71,1.17-.47,2.18-1.12,3.01-1.95l4.34,5.81c-1.41,1.41-3.09,2.51-5.05,3.28-1.95.78-4.01,1.17-6.19,1.17s-4.2-.38-6.08-1.14c-1.88-.76-3.51-1.81-4.88-3.15-1.38-1.34-2.45-2.93-3.23-4.77-.78-1.84-1.17-3.83-1.17-5.97s.39-4.11,1.17-5.94c.78-1.83,1.85-3.41,3.23-4.75,1.37-1.34,2.99-2.39,4.86-3.15,1.86-.76,3.88-1.14,6.05-1.14s4.29.39,6.24,1.17Z" style="fill:#44423d;"/><path d="M456.35,17.23c.76-1.83,1.81-3.4,3.15-4.72,1.34-1.32,2.96-2.35,4.86-3.09,1.9-.74,3.97-1.11,6.21-1.11s4.3.36,6.19,1.09c1.88.72,3.5,1.75,4.86,3.07,1.36,1.32,2.41,2.9,3.15,4.75.74,1.84,1.11,3.87,1.11,6.08s-.37,4.23-1.11,6.08c-.74,1.84-1.79,3.43-3.15,4.75-1.36,1.32-2.98,2.35-4.86,3.09-1.88.74-3.94,1.11-6.19,1.11s-4.3-.37-6.19-1.11c-1.88-.74-3.5-1.77-4.86-3.09-1.36-1.32-2.41-2.9-3.17-4.75-.76-1.84-1.14-3.87-1.14-6.08s.38-4.22,1.14-6.05ZM477.38,20.27c-.34-.92-.84-1.7-1.49-2.33-.65-.63-1.43-1.13-2.33-1.49-.9-.36-1.9-.54-2.98-.54s-2.08.18-2.98.54c-.9.36-1.68.87-2.33,1.52-.65.65-1.16,1.43-1.52,2.33-.36.9-.54,1.9-.54,2.98s.18,2.09.54,3.01c.36.92.87,1.71,1.52,2.36s1.43,1.16,2.33,1.52c.9.36,1.9.54,2.98.54s2.08-.18,2.98-.54c.9-.36,1.67-.87,2.31-1.52.63-.65,1.13-1.43,1.49-2.33.36-.9.54-1.92.54-3.04s-.17-2.09-.52-3.01Z" style="fill:#44423d;"/><path d="M510.07,37.33v-14.16c0-1.27-.11-2.35-.33-3.26-.22-.9-.56-1.65-1.03-2.25-.47-.6-1.05-1.04-1.74-1.33-.69-.29-1.52-.43-2.5-.43s-1.82.14-2.52.43c-.71.29-1.28.72-1.74,1.3-.45.58-.8,1.3-1.03,2.17-.24.87-.35,1.9-.35,3.09v14.43h-7.65v-14.27c0-2.31.3-4.39.9-6.21.6-1.83,1.46-3.37,2.6-4.64,1.14-1.27,2.52-2.23,4.15-2.9,1.63-.67,3.49-1,5.59-1,1.41,0,2.72.15,3.93.46,1.21.31,2.31.77,3.31,1.38.99.62,1.85,1.37,2.58,2.25.72.89,1.32,1.89,1.79,3.01h-4.45c.51-1.16,1.14-2.18,1.9-3.07.76-.89,1.64-1.63,2.63-2.22.99-.6,2.11-1.05,3.34-1.36,1.23-.31,2.55-.46,3.96-.46,2.06,0,3.92.33,5.56,1,1.65.67,3.04,1.64,4.18,2.9,1.14,1.27,2.01,2.81,2.6,4.64.6,1.83.9,3.9.9,6.21v14.27h-7.7v-14.43c0-1.19-.11-2.23-.33-3.12-.22-.89-.56-1.62-1.03-2.2-.47-.58-1.06-1-1.76-1.28-.71-.27-1.55-.41-2.52-.41s-1.76.14-2.47.43c-.71.29-1.28.72-1.74,1.3-.45.58-.79,1.33-1,2.25-.22.92-.33,2.02-.33,3.28v14.16h-7.7Z" style="fill:#44423d;"/><rect x="293.59" y="28.16" width="2.37" height="13" style="fill:#44423d;"/><path d="M294.77,41.8c-.66,0-1.19-.29-1.19-.65v-13c0-.36.53-.65,1.19-.65s1.19.29,1.19.65v13c0,.36-.53.65-1.19.65Z" style="fill:#44423d;"/><rect x="293.59" y="5.01" width="2.37" height="13" style="fill:#44423d;"/><path d="M294.77,18.65c-.66,0-1.19-.29-1.19-.65V5.01c0-.36.53-.65,1.19-.65s1.19.29,1.19.65v13c0,.36-.53.65-1.19.65Z" style="fill:#44423d;"/><circle cx="294.77" cy="22.99" r="1.77" style="fill:#ff1414;"/><path d="M280.58,16.91c.76-1.83,1.81-3.4,3.15-4.72,1.34-1.32,2.96-2.35,4.86-3.09,1.9-.74,3.97-1.11,6.21-1.11s4.3.36,6.19,1.09c1.88.72,3.5,1.75,4.86,3.07,1.36,1.32,2.41,2.9,3.15,4.75.74,1.84,1.11,3.87,1.11,6.08s-.37,4.23-1.11,6.08c-.74,1.84-1.79,3.43-3.15,4.75-1.36,1.32-2.98,2.35-4.86,3.09-1.88.74-3.94,1.11-6.19,1.11s-4.3-.37-6.19-1.11c-1.88-.74-3.5-1.77-4.86-3.09-1.36-1.32-2.41-2.9-3.17-4.75-.76-1.84-1.14-3.87-1.14-6.08s.38-4.22,1.14-6.05ZM301.61,19.95c-.34-.92-.84-1.7-1.49-2.33-.65-.63-1.43-1.13-2.33-1.49-.9-.36-1.9-.54-2.98-.54s-2.08.18-2.98.54c-.9.36-1.68.87-2.33,1.52-.65.65-1.16,1.43-1.52,2.33-.36.9-.54,1.9-.54,2.98s.18,2.09.54,3.01c.36.92.87,1.71,1.52,2.36s1.43,1.16,2.33,1.52c.9.36,1.9.54,2.98.54s2.08-.18,2.98-.54c.9-.36,1.67-.87,2.31-1.52.63-.65,1.13-1.43,1.49-2.33.36-.9.54-1.92.54-3.04s-.17-2.09-.52-3.01Z" style="fill:#44423d;"/><rect x="276.28" y="21.8" width="13" height="2.37" style="fill:#44423d;"/><path d="M275.64,22.99c0-.66.29-1.19.65-1.19h13c.36,0,.65.53.65,1.19s-.29,1.19-.65,1.19h-13c-.36,0-.65-.53-.65-1.19Z" style="fill:#44423d;"/><rect x="299.43" y="21.8" width="13" height="2.37" style="fill:#44423d;"/><path d="M298.79,22.99c0-.66.29-1.19.65-1.19h13c.36,0,.65.53.65,1.19s-.29,1.19-.65,1.19h-13c-.36,0-.65-.53-.65-1.19Z" style="fill:#44423d;"/></g></svg>